<svg width="240" height="240" viewBox="0 0 240 240" fill="none" xmlns="http://www.w3.org/2000/svg">
<path d="M163.395 58.1604C156.7 50.5785 144.268 47.2615 128.727 47.2615H83.0607C79.9526 47.2615 77.0835 49.6308 76.6053 52.7109L57.4782 172.125C57 174.495 58.9127 176.627 61.3036 176.627H89.5161L96.6888 132.084L96.4497 133.505C96.9279 130.425 99.5579 128.056 102.905 128.056H116.294C142.594 128.056 163.156 117.394 169.133 86.8294C169.372 85.8817 169.372 84.9339 169.611 84.2231C168.894 83.7492 168.894 83.7492 169.611 84.2231C171.285 72.8503 169.611 65.2684 163.395 58.1604Z" fill="#263B80"/>
<path d="M169.611 84.2231C169.372 85.1709 169.372 85.8817 169.133 86.8294C163.156 117.394 142.594 128.056 116.294 128.056H102.905C99.7969 128.056 96.9278 130.425 96.4497 133.505L87.6034 188.711C87.3643 190.843 88.7988 192.739 90.9506 192.739H114.62C117.49 192.739 119.88 190.606 120.359 188L120.598 186.815L125.14 158.857L125.379 157.199C125.858 154.355 128.249 152.46 131.118 152.46H134.704C157.657 152.46 175.588 143.22 180.848 116.446C183 105.31 181.805 95.8329 176.066 89.4357C174.154 87.3033 172.002 85.6447 169.611 84.2231Z" fill="#139AD6"/>
<path d="M163.156 81.8536L160.287 81.1428C159.33 80.9059 158.374 80.6689 157.178 80.6689C153.592 79.9581 149.528 79.7212 145.463 79.7212H109.839C108.882 79.7212 108.165 79.9581 107.448 80.1951C105.774 80.9059 104.579 82.5644 104.34 84.4599L96.6888 132.084L96.4497 133.505C96.9279 130.425 99.5579 128.056 102.905 128.056H116.294C142.594 128.056 163.156 117.394 169.133 86.8292C169.372 85.8815 169.372 84.9337 169.611 84.2229C168.176 83.5121 166.503 82.8013 164.59 82.0905C164.112 82.0905 163.634 81.8536 163.156 81.8536Z" fill="#232C65"/>
<path d="M128.488 47.2615H83.0607C79.9525 47.2615 77.0835 49.6308 76.6053 52.7109L65.6072 120.948L139.247 47.9723C135.899 47.4984 132.313 47.2615 128.488 47.2615Z" fill="#2A4DAD"/>
<path d="M178.218 92.7528C177.501 91.5681 177.023 90.3834 176.066 89.1988C174.393 87.3033 172.002 85.6447 169.611 84.2231C169.372 85.1709 169.372 85.8817 169.133 86.8294C163.156 117.394 142.594 128.056 116.294 128.056H102.905C99.7969 128.056 96.9279 130.425 96.4497 133.505L88.7988 181.366L178.218 92.7528Z" fill="#0D7DBC"/>
<path d="M61.3036 176.627H89.5161L96.4497 133.505C96.4497 132.794 96.6888 132.321 96.9279 131.847L57.7172 170.704L57.4782 172.125C57.2391 174.495 58.9127 176.627 61.3036 176.627Z" fill="#232C65"/>
<path d="M119.88 47.2615H83.0607C82.1043 47.2615 81.3871 47.4984 80.6698 47.7353L77.0835 51.2893C76.8444 51.7632 76.6053 52.2371 76.6053 52.7109L69.4326 97.2545L119.88 47.2615Z" fill="#436BC4"/>
<path d="M180.848 116.209C181.565 112.655 181.805 109.338 181.805 106.021L135.182 152.223C157.896 151.986 175.588 142.746 180.848 116.209ZM120.598 186.815L124.423 163.122L94.537 192.739H114.86C117.729 192.739 120.12 190.606 120.598 188V186.815Z" fill="#0CB2ED"/>
<path opacity="0.6" d="M168.176 90.6203L181.805 104.126C181.805 102.467 181.326 100.808 181.087 99.1499L169.133 87.3032C168.655 88.4879 168.416 89.4356 168.176 90.6203ZM164.829 100.572L163.395 103.415L179.892 119.763L180.609 116.209L164.829 100.572ZM175.11 132.321L176.545 129.477L158.374 111.47C157.657 112.181 157.178 113.129 156.461 113.84L175.11 132.321ZM146.419 121.422L167.22 142.035L169.372 139.902L149.049 119.763C148.093 120.237 147.376 120.711 146.419 121.422ZM133.748 126.16L156.461 148.669L159.33 147.247L137.095 125.213C135.899 125.45 134.943 125.923 133.748 126.16ZM142.116 151.986C143.311 151.749 144.746 151.749 145.941 151.512L122.032 127.819C120.598 127.819 119.402 128.056 117.968 128.056L142.116 151.986ZM104.818 128.056H102.905C102.188 128.056 101.471 128.293 100.992 128.293L126.814 154.119C127.531 153.408 128.488 152.697 129.444 152.46L104.818 128.056ZM95.2542 140.376L123.467 168.335L124.184 164.544L95.9715 136.585L95.2542 140.376ZM92.8633 155.303L121.076 183.261L121.793 179.707L93.5806 151.749L92.8633 155.303ZM91.1897 166.676L90.7115 170.467L113.186 192.739H114.86C115.577 192.739 116.294 192.502 117.011 192.265L91.1897 166.676ZM88.0815 185.394L95.4933 192.739H99.7969L88.7988 181.84L88.0815 185.394Z" fill="#33E2FF"/>
</svg>
