<svg width="240" height="240" viewBox="0 0 240 240" fill="none" xmlns="http://www.w3.org/2000/svg">
<g clip-path="url(#clip0_4747_16814)">
<path d="M172.371 71.4191C172.261 70.6191 171.562 70.1763 170.984 70.1276C170.407 70.0794 158.198 69.1725 158.198 69.1725C158.198 69.1725 149.718 60.7369 148.787 59.8032C147.856 58.87 146.037 59.1539 145.332 59.3621C145.228 59.3928 143.479 59.9336 140.586 60.8306C137.754 52.6629 132.755 45.1572 123.96 45.1572C123.717 45.1572 123.467 45.167 123.218 45.1813C120.716 41.8668 117.618 40.4268 114.942 40.4268C94.4553 40.4268 84.6678 66.0898 81.5991 79.1309C73.6384 81.6026 67.9832 83.3599 67.2609 83.5873C62.8174 84.984 62.6769 85.1243 62.0934 89.3199C61.6543 92.4963 50.0278 182.594 50.0278 182.594L140.624 199.604L189.712 188.963C189.712 188.963 172.48 72.2191 172.371 71.4191ZM135.579 62.3824L127.913 64.7599C127.916 64.2185 127.919 63.6859 127.919 63.1035C127.919 58.0273 127.215 53.9402 126.087 50.7002C130.619 51.27 133.637 56.4366 135.579 62.3824ZM120.466 51.7068C121.726 54.87 122.545 59.4098 122.545 65.5358C122.545 65.8492 122.542 66.1358 122.539 66.4257C117.554 67.9731 112.137 69.6531 106.707 71.3385C109.756 59.5489 115.47 53.8547 120.466 51.7068ZM114.379 45.9331C115.263 45.9331 116.154 46.2339 117.007 46.8218C110.441 49.9177 103.404 57.715 100.432 73.2859L87.917 77.1698C91.3981 65.2931 99.6644 45.9331 114.379 45.9331Z" fill="#95BF46"/>
<path d="M170.984 70.1277C170.407 70.0795 158.198 69.1727 158.198 69.1727C158.198 69.1727 149.718 60.7371 148.787 59.8034C148.439 59.456 147.969 59.2779 147.478 59.2012L140.628 199.603L189.712 188.963C189.712 188.963 172.479 72.2193 172.371 71.4193C172.261 70.6193 171.562 70.1765 170.984 70.1277Z" fill="#5E8E3E"/>
<path d="M123.96 97.3069L117.907 115.349C117.907 115.349 112.604 112.512 106.104 112.512C96.5737 112.512 96.0941 118.505 96.0941 120.015C96.0941 128.255 117.529 131.413 117.529 150.713C117.529 165.899 107.918 175.677 94.9584 175.677C79.4068 175.677 71.4539 165.978 71.4539 165.978L75.6179 152.192C75.6179 152.192 83.7929 159.225 90.691 159.225C95.1984 159.225 97.0319 155.669 97.0319 153.07C97.0319 142.322 79.4462 141.842 79.4462 124.18C79.4462 109.315 90.0939 94.9299 111.587 94.9299C119.869 94.9299 123.96 97.3069 123.96 97.3069Z" fill="white"/>
</g>
<defs>
<clipPath id="clip0_4747_16814">
<rect width="140" height="160" fill="white" transform="translate(50 40)"/>
</clipPath>
</defs>
</svg>
