<svg width="240" height="240" viewBox="0 0 240 240" fill="none" xmlns="http://www.w3.org/2000/svg">
<g clip-path="url(#clip0_4747_16820)">
<path d="M41.827 62H198.096C207.986 62 215.991 70.0237 215.991 79.9362V139.722C215.991 149.635 207.986 157.658 198.096 157.658H142.056L149.748 176.538L115.919 157.658H41.905C32.0157 157.658 24.0102 149.635 24.0102 139.722V79.9362C23.9314 70.1026 31.9362 62 41.827 62Z" fill="#9B5C8F"/>
<path d="M34.9415 78.3479C36.0342 76.8612 37.6728 76.0795 39.8581 75.9232C43.8387 75.6097 46.102 77.4866 46.6479 81.5544C49.0672 97.9024 51.7204 111.748 54.5297 123.089L71.6206 90.4718C73.1819 87.4991 75.1332 85.9349 77.4745 85.7786C80.9084 85.5441 83.015 87.7336 83.8737 92.3486C85.825 102.751 88.3222 111.59 91.2875 119.099C93.3168 99.2321 96.7507 84.918 101.589 76.0795C102.759 73.8892 104.476 72.7941 106.74 72.637C108.535 72.4814 110.174 73.0286 111.656 74.2019C113.139 75.3752 113.92 76.8612 114.076 78.6606C114.154 80.0684 113.92 81.2417 113.296 82.415C110.252 88.047 107.754 97.5116 105.725 110.652C103.775 123.402 103.072 133.336 103.54 140.454C103.697 142.408 103.384 144.129 102.604 145.616C101.666 147.337 100.263 148.275 98.4673 148.432C96.438 148.588 94.3314 147.65 92.3021 145.538C85.0443 138.107 79.2691 127 75.0552 112.217C69.982 122.228 66.2361 129.737 63.8168 134.743C59.2122 143.582 55.3103 148.119 52.0324 148.354C49.9251 148.51 48.1305 146.711 46.5699 142.957C42.59 132.71 38.2974 112.92 33.6936 83.5883C33.3809 81.5544 33.8489 79.755 34.9415 78.3479ZM202.653 90.6281C199.843 85.7004 195.707 82.7285 190.166 81.5544C188.683 81.2417 187.279 81.0854 185.952 81.0854C178.46 81.0854 172.373 84.9961 167.612 92.8184C163.554 99.4666 161.525 106.819 161.525 114.876C161.525 120.899 162.774 126.061 165.271 130.363C168.08 135.291 172.217 138.263 177.757 139.436C179.24 139.75 180.645 139.906 181.972 139.906C189.542 139.906 195.629 135.995 200.311 128.173C204.369 121.446 206.399 114.093 206.399 106.037C206.477 99.9364 205.15 94.8516 202.653 90.6281ZM192.82 112.295C191.727 117.457 189.776 121.29 186.888 123.871C184.625 125.905 182.518 126.764 180.567 126.374C178.694 125.983 177.133 124.34 175.963 121.29C175.025 118.865 174.558 116.44 174.558 114.172C174.558 112.217 174.714 110.261 175.104 108.462C175.807 105.255 177.133 102.126 179.24 99.1539C181.816 95.3206 184.547 93.7572 187.356 94.3044C189.23 94.6952 190.791 96.3383 191.961 99.3884C192.898 101.813 193.366 104.238 193.366 106.506C193.366 108.54 193.21 110.496 192.82 112.295ZM153.799 90.6281C150.989 85.7004 146.775 82.7285 141.312 81.5544C139.83 81.2417 138.425 81.0854 137.098 81.0854C129.606 81.0854 123.519 84.9961 118.758 92.8184C114.7 99.4666 112.671 106.819 112.671 114.876C112.671 120.899 113.92 126.061 116.417 130.363C119.226 135.291 123.363 138.263 128.903 139.436C130.387 139.75 131.79 139.906 133.118 139.906C140.688 139.906 146.775 135.995 151.457 128.173C155.516 121.446 157.544 114.093 157.544 106.037C157.544 99.9364 156.296 94.8516 153.799 90.6281ZM143.888 112.295C142.795 117.457 140.844 121.29 137.956 123.871C135.693 125.905 133.586 126.764 131.634 126.374C129.762 125.983 128.201 124.34 127.03 121.29C126.094 118.865 125.626 116.44 125.626 114.172C125.626 112.217 125.782 110.261 126.172 108.462C126.875 105.255 128.201 102.126 130.309 99.1539C132.884 95.3206 135.615 93.7572 138.424 94.3044C140.298 94.6952 141.859 96.3383 143.029 99.3884C143.966 101.813 144.433 104.238 144.433 106.506C144.512 108.54 144.277 110.496 143.888 112.295Z" fill="white"/>
</g>
<defs>
<clipPath id="clip0_4747_16820">
<rect width="192" height="115" fill="white" transform="translate(24 62)"/>
</clipPath>
</defs>
</svg>
