<svg width="240" height="240" viewBox="0 0 240 240" fill="none" xmlns="http://www.w3.org/2000/svg">
<g clip-path="url(#clip0_4747_16816)">
<path d="M139.999 120.035C140.002 125.804 138.961 131.526 136.927 136.925C131.527 138.959 125.803 140.001 120.033 140.002H119.965C114.022 139.994 108.329 138.908 103.075 136.927C101.04 131.528 99.9981 125.805 100 120.035V119.965C99.9972 114.197 101.037 108.476 103.069 103.078C108.469 101.04 114.194 99.9974 119.966 100H120.033C125.804 99.9972 131.528 101.04 136.928 103.077C138.962 108.475 140.003 114.196 140 119.964V120.034L139.999 120.035ZM198.889 106.667H152.191L185.209 73.6462C182.618 70.0057 179.727 66.5878 176.567 63.4281V63.4256C173.407 60.2693 169.99 57.381 166.351 54.7906L133.331 87.8113V41.1137C128.939 40.375 124.493 40.0024 120.04 40L119.957 40C115.427 40.0025 110.991 40.3875 106.667 41.1137V87.8113L73.6462 54.7906C70.0071 57.3803 66.5916 60.2707 63.4356 63.4313L63.4181 63.4437C60.2635 66.5995 57.3766 70.0121 54.7875 73.6462L87.8106 106.667H41.1137C41.1137 106.667 40 115.438 40 119.973V120.028C40 124.563 40.3844 129.007 41.1137 133.333H87.8113L54.7881 166.354C59.9829 173.644 66.3562 180.017 73.6462 185.212L106.667 152.189V198.889C111.054 199.624 115.494 199.996 119.942 200H120.055C124.503 199.996 128.943 199.624 133.33 198.889V152.189L166.354 185.212C169.992 182.621 173.408 179.731 176.567 176.574L176.574 176.567C179.73 173.407 182.618 169.991 185.209 166.354L152.186 133.333H198.889C199.616 129.014 199.995 124.583 200 120.058V119.942C199.995 115.417 199.616 110.986 198.889 106.667Z" fill="#FF4A00"/>
</g>
<defs>
<clipPath id="clip0_4747_16816">
<rect width="160" height="160" fill="white" transform="translate(40 40)"/>
</clipPath>
</defs>
</svg>
